<svg width="256" height="256" viewBox="0 0 256 256" fill="none" xmlns="http://www.w3.org/2000/svg">
<defs>
    <linearGradient id="icon-gradient" x1="0" y1="0" x2="256" y2="256">
      <stop offset="0%" stop-color="hsl(280 100% 72%)" />
      <stop offset="100%" stop-color="hsl(209 100% 72%)" />
    </linearGradient>
</defs>
<path d="M128 0C94.137 0 61.354 13.431 37.5 37.5S0 94.137 0 128s13.431 66.5 37.5 90.5S94.137 256 128 256s66.5-13.431 90.5-37.5S256 161.863 256 128 242.569 61.5 218.5 37.5 161.863 0 128 0z" fill="url(#icon-gradient)"/>
<path d="M176.65 133.32c-3.15 1.82-7.88 4.55-11.03 6.37-14.22 8.21-28.45 16.42-42.67 24.63-4.52 2.61-9.05 5.22-13.57 7.83-2.68 1.55-5.9.11-7.23-2.61-1.33-2.72-.4-5.99 2.1-7.44 3.15-1.82 7.88-4.55 11.03-6.37 14.22-8.21 28.45-16.42 42.67-24.63 4.52-2.61 9.05-5.22 13.57-7.83 2.68-1.55 5.9.11 7.23 2.61 1.33 2.72.4 5.99-2.1 7.44z" fill="#141821"/>
<path d="M107.13 86.82c-2.68 1.55-5.9-.11-7.23-2.61-1.33-2.72-.4-5.99 2.1-7.44 12.3-7.1 24.6-14.2 36.9-21.3 2.68-1.55 5.9.11 7.23 2.61 1.33 2.72.4 5.99-2.1 7.44-12.3 7.1-24.6 14.2-36.9 21.3z" fill="#141821"/>
<path d="M199.98 155.51c-2.68 1.55-5.9-.11-7.23-2.61-1.33-2.72-.4-5.99 2.1-7.44 12.3-7.1 24.6-14.2 36.9-21.3 2.68-1.55 5.9.11 7.23 2.61 1.33 2.72.4 5.99-2.1 7.44-12.3 7.1-24.6 14.2-36.9 21.3z" fill="#141821"/>
</svg>
